<svg width="1440" height="180" viewBox="0 0 1440 180" fill="none" xmlns="http://www.w3.org/2000/svg">
<g clip-path="url(#clip0_162_109)">
<path d="M90 90C90 66.1305 80.5179 43.2387 63.6396 26.3604C46.7613 9.48212 23.8695 0 0 0V90H90Z" fill="#2A775E"/>
<path d="M180 90C180 66.1305 170.518 43.2387 153.64 26.3604C136.761 9.48212 113.869 0 90 0V90H180Z" fill="#2A775E"/>
<path d="M90 180C90 156.131 80.5179 133.239 63.6396 116.36C46.7613 99.4821 23.8695 90 0 90V180H90Z" fill="#2A775E"/>
<path d="M180 180C180 156.131 170.518 133.239 153.64 116.36C136.761 99.4821 113.869 90 90 90V180H180Z" fill="#2A775E"/>
</g>
<g clip-path="url(#clip1_162_109)">
<path d="M450 90C450 66.1305 440.518 43.2387 423.64 26.3604C406.761 9.48212 383.869 0 360 0V90H450Z" fill="#2A775E"/>
<path d="M540 90C540 66.1305 530.518 43.2387 513.64 26.3604C496.761 9.48212 473.869 0 450 0V90H540Z" fill="#2A775E"/>
<path d="M450 180C450 156.131 440.518 133.239 423.64 116.36C406.761 99.4821 383.869 90 360 90V180H450Z" fill="#2A775E"/>
<path d="M540 180C540 156.131 530.518 133.239 513.64 116.36C496.761 99.4821 473.869 90 450 90V180H540Z" fill="#2A775E"/>
</g>
<g clip-path="url(#clip2_162_109)">
<path d="M810 90C810 66.1305 800.518 43.2387 783.64 26.3604C766.761 9.48212 743.869 0 720 0V90H810Z" fill="#2A775E"/>
<path d="M900 90C900 66.1305 890.518 43.2387 873.64 26.3604C856.761 9.48212 833.869 0 810 0V90H900Z" fill="#2A775E"/>
<path d="M810 180C810 156.131 800.518 133.239 783.64 116.36C766.761 99.4821 743.869 90 720 90V180H810Z" fill="#2A775E"/>
<path d="M900 180C900 156.131 890.518 133.239 873.64 116.36C856.761 99.4821 833.869 90 810 90V180H900Z" fill="#2A775E"/>
</g>
<g clip-path="url(#clip3_162_109)">
<path d="M1170 90C1170 66.1305 1160.52 43.2387 1143.64 26.3604C1126.76 9.48212 1103.87 0 1080 0V90H1170Z" fill="#2A775E"/>
<path d="M1260 90C1260 66.1305 1250.52 43.2387 1233.64 26.3604C1216.76 9.48212 1193.87 0 1170 0V90H1260Z" fill="#2A775E"/>
<path d="M1170 180C1170 156.131 1160.52 133.239 1143.64 116.36C1126.76 99.4821 1103.87 90 1080 90V180H1170Z" fill="#2A775E"/>
<path d="M1260 180C1260 156.131 1250.52 133.239 1233.64 116.36C1216.76 99.4821 1193.87 90 1170 90V180H1260Z" fill="#2A775E"/>
</g>
<g clip-path="url(#clip4_162_109)">
<path d="M270 90C270 113.869 279.482 136.761 296.36 153.64C313.239 170.518 336.131 180 360 180V90H270Z" fill="#2A775E"/>
<path d="M180 90C180 113.869 189.482 136.761 206.36 153.64C223.239 170.518 246.131 180 270 180V90H180Z" fill="#2A775E"/>
<path d="M270 2.38419e-06C270 23.8695 279.482 46.7613 296.36 63.6396C313.239 80.5179 336.131 90 360 90V2.38419e-06H270Z" fill="#2A775E"/>
<path d="M180 2.38419e-06C180 23.8695 189.482 46.7613 206.36 63.6396C223.239 80.5179 246.131 90 270 90V2.38419e-06H180Z" fill="#2A775E"/>
</g>
<g clip-path="url(#clip5_162_109)">
<path d="M630 90C630 113.869 620.518 136.761 603.64 153.64C586.761 170.518 563.869 180 540 180V90H630Z" fill="#2A775E"/>
<path d="M720 90C720 113.869 710.518 136.761 693.64 153.64C676.761 170.518 653.869 180 630 180V90H720Z" fill="#2A775E"/>
<path d="M630 2.38419e-06C630 23.8695 620.518 46.7613 603.64 63.6396C586.761 80.5179 563.869 90 540 90V2.38419e-06H630Z" fill="#2A775E"/>
<path d="M720 2.38419e-06C720 23.8695 710.518 46.7613 693.64 63.6396C676.761 80.5179 653.869 90 630 90V2.38419e-06H720Z" fill="#2A775E"/>
</g>
<g clip-path="url(#clip6_162_109)">
<path d="M990 90C990 66.1305 999.482 43.2387 1016.36 26.3604C1033.24 9.48212 1056.13 0 1080 0V90H990Z" fill="#2A775E"/>
<path d="M900 90C900 66.1305 909.482 43.2387 926.36 26.3604C943.239 9.48212 966.131 0 990 0V90H900Z" fill="#2A775E"/>
<path d="M990 180C990 156.131 999.482 133.239 1016.36 116.36C1033.24 99.4821 1056.13 90 1080 90V180H990Z" fill="#2A775E"/>
<path d="M900 180C900 156.131 909.482 133.239 926.36 116.36C943.239 99.4821 966.131 90 990 90V180H900Z" fill="#2A775E"/>
</g>
<g clip-path="url(#clip7_162_109)">
<path d="M1350 90C1350 113.869 1340.52 136.761 1323.64 153.64C1306.76 170.518 1283.87 180 1260 180V90H1350Z" fill="#2A775E"/>
<path d="M1440 90C1440 113.869 1430.52 136.761 1413.64 153.64C1396.76 170.518 1373.87 180 1350 180V90H1440Z" fill="#2A775E"/>
<path d="M1350 2.38419e-06C1350 23.8695 1340.52 46.7613 1323.64 63.6396C1306.76 80.5179 1283.87 90 1260 90V2.38419e-06H1350Z" fill="#2A775E"/>
<path d="M1440 2.38419e-06C1440 23.8695 1430.52 46.7613 1413.64 63.6396C1396.76 80.5179 1373.87 90 1350 90V2.38419e-06H1440Z" fill="#2A775E"/>
</g>
<defs>
<clipPath id="clip0_162_109">
<rect width="180" height="180" fill="white"/>
</clipPath>
<clipPath id="clip1_162_109">
<rect width="180" height="180" fill="white" transform="translate(360)"/>
</clipPath>
<clipPath id="clip2_162_109">
<rect width="180" height="180" fill="white" transform="translate(720)"/>
</clipPath>
<clipPath id="clip3_162_109">
<rect width="180" height="180" fill="white" transform="translate(1080)"/>
</clipPath>
<clipPath id="clip4_162_109">
<rect width="180" height="180" fill="white" transform="matrix(-1 0 0 -1 360 180)"/>
</clipPath>
<clipPath id="clip5_162_109">
<rect width="180" height="180" fill="white" transform="matrix(1 0 0 -1 540 180)"/>
</clipPath>
<clipPath id="clip6_162_109">
<rect width="180" height="180" fill="white" transform="matrix(-1 0 0 1 1080 0)"/>
</clipPath>
<clipPath id="clip7_162_109">
<rect width="180" height="180" fill="white" transform="matrix(1 0 0 -1 1260 180)"/>
</clipPath>
</defs>
</svg>
