<svg width="24" height="24" viewBox="0 0 24 24" fill="none" xmlns="http://www.w3.org/2000/svg">
<g clip-path="url(#clip0_32_975)">
<path d="M12.9996 14.1722V8.00024H10.9996V14.1722C10.3324 14.4081 9.77008 14.8723 9.41201 15.4827C9.05393 16.0931 8.92317 16.8105 9.04284 17.508C9.16251 18.2055 9.52491 18.8382 10.066 19.2943C10.607 19.7505 11.292 20.0007 11.9996 20.0007C12.7073 20.0007 13.3922 19.7505 13.9333 19.2943C14.4744 18.8382 14.8368 18.2055 14.9564 17.508C15.0761 16.8105 14.9453 16.0931 14.5873 15.4827C14.2292 14.8723 13.6669 14.4081 12.9996 14.1722ZM16.9996 12.1112V5.00025C16.7886 -1.60875 7.20864 -1.59975 6.99964 5.00025V12.1112C6.03497 13.0958 5.38244 14.3432 5.12389 15.6972C4.86533 17.0511 5.01226 18.4512 5.54623 19.722C6.08021 20.9927 6.97747 22.0775 8.12551 22.8404C9.27354 23.6033 10.6213 24.0102 11.9996 24.0102C13.378 24.0102 14.7257 23.6033 15.8738 22.8404C17.0218 22.0775 17.9191 20.9927 18.453 19.722C18.987 18.4512 19.1339 17.0511 18.8754 15.6972C18.6168 14.3432 17.9643 13.0958 16.9996 12.1112ZM11.9996 22.0002C10.9932 21.9889 10.0134 21.6752 9.18749 21.0999C8.36162 20.5245 7.72786 19.7141 7.36856 18.7738C7.00925 17.8336 6.941 16.8071 7.17266 15.8276C7.40433 14.8481 7.92521 13.9609 8.66764 13.2812L8.99964 12.9812V5.00025C8.99964 4.2046 9.31571 3.44154 9.87832 2.87893C10.4409 2.31632 11.204 2.00025 11.9996 2.00025C12.7953 2.00025 13.5583 2.31632 14.121 2.87893C14.6836 3.44154 14.9996 4.2046 14.9996 5.00025V12.9832L15.3316 13.2832C16.0733 13.963 16.5936 14.8501 16.8248 15.8292C17.0561 16.8084 16.9877 17.8344 16.6284 18.7742C16.2692 19.714 15.6358 20.5241 14.8104 21.0994C13.9849 21.6746 13.0057 21.9885 11.9996 22.0002Z" fill="white"/>
</g>
<defs>
<clipPath id="clip0_32_975">
<rect width="24" height="24" rx="4" fill="white"/>
</clipPath>
</defs>
</svg>
