<svg width="24" height="24" viewBox="0 0 24 24" fill="none" xmlns="http://www.w3.org/2000/svg">
<g clip-path="url(#clip0_32_966)">
<path d="M23.467 13.6369L19.012 14.8259L17.089 13.7419V10.3099L19.011 9.2259L23.467 10.4139L24 8.4819L20.12 7.4479L21.172 3.6319L19.208 3.1079L18 7.4899L16.174 8.5199L13.018 6.7279V4.6509L16.282 1.4409L14.843 0.0249023L12 2.8209L9.157 0.0249023L7.718 1.4409L10.982 4.6509V6.7279L7.826 8.5199L6 7.4899L4.792 3.1079L2.828 3.6319L3.88 7.4479L0 8.4819L0.533 10.4139L4.988 9.2259L6.911 10.3099V13.7419L4.988 14.8259L0.533 13.6369L0 15.5689L3.88 16.5999L2.828 20.4199L4.792 20.9439L6 16.5609L8 15.4349L10.983 17.1279V19.3999L7.718 22.6099L9.157 24.0249L12 21.2299L14.843 24.0249L16.282 22.6099L13.018 19.3999V17.1279L16 15.4349L18 16.5609L19.209 20.9439L21.173 20.4199L20.12 16.5999L24 15.5689L23.467 13.6369ZM15.053 13.6619L12 15.3999L8.947 13.6619V10.1999L12 8.4609L15.053 10.1999V13.6619Z" fill="white"/>
</g>
<defs>
<clipPath id="clip0_32_966">
<rect width="24" height="24" rx="4" fill="white"/>
</clipPath>
</defs>
</svg>
