<svg width="24" height="24" viewBox="0 0 24 24" fill="none" xmlns="http://www.w3.org/2000/svg">
<g clip-path="url(#clip0_62_1085)">
<path d="M19.7647 9.45713L4.97974 0.0181274V24.0181L19.7587 14.5451C20.1889 14.2747 20.5436 13.8997 20.7896 13.4552C21.0356 13.0106 21.165 12.5109 21.1656 12.0028C21.1662 11.4947 21.038 10.9947 20.793 10.5495C20.5481 10.1044 20.1943 9.72853 19.7647 9.45713ZM18.6847 12.8521L6.98474 20.3521V3.67613L18.6917 11.1501C18.8361 11.2404 18.955 11.366 19.0372 11.5151C19.1194 11.6642 19.1622 11.8318 19.1615 12.0021C19.1608 12.1723 19.1166 12.3396 19.0332 12.488C18.9498 12.6364 18.8298 12.761 18.6847 12.8501V12.8521Z" fill="white"/>
</g>
<defs>
<clipPath id="clip0_62_1085">
<rect width="24" height="24" rx="4" fill="white"/>
</clipPath>
</defs>
</svg>
