<svg width="24" height="24" viewBox="0 0 24 24" fill="none" xmlns="http://www.w3.org/2000/svg">
<g clip-path="url(#clip0_32_984)">
<path d="M14 24C13.2116 24.0023 12.4307 23.848 11.7025 23.546C10.9743 23.2441 10.3133 22.8005 9.75796 22.241C8.63927 21.112 8.01166 19.5869 8.01166 17.9975C8.01166 16.4081 8.63927 14.883 9.75796 13.754L14 9.253L18.263 13.772C19.3718 14.9033 19.9911 16.4253 19.9872 18.0093C19.9832 19.5933 19.3564 21.1123 18.242 22.238C17.6868 22.798 17.026 23.2421 16.2977 23.5446C15.5695 23.8471 14.7885 24.0019 14 24ZM14 12.171L11.192 15.148C10.4365 15.8986 10.0101 16.9184 10.0063 17.9834C10.0026 19.0483 10.4218 20.0711 11.172 20.827C11.9335 21.5549 12.9465 21.9611 14 21.9611C15.0534 21.9611 16.0664 21.5549 16.828 20.827C17.5736 20.0742 17.9919 19.0575 17.9919 17.998C17.9919 16.9385 17.5736 15.9218 16.828 15.169L14 12.171ZM4.99996 11.996C4.34311 11.9978 3.69243 11.8693 3.08562 11.6178C2.47881 11.3663 1.92795 10.9969 1.46496 10.531C0.532828 9.59019 0.0098877 8.31938 0.0098877 6.995C0.0098877 5.67062 0.532828 4.39981 1.46496 3.459L4.99996 0L8.52696 3.448C9.46282 4.38796 9.9889 5.65994 9.9904 6.98635C9.9919 8.31276 9.46869 9.58593 8.53496 10.528C8.07206 10.9941 7.52122 11.3636 6.91439 11.615C6.30756 11.8665 5.65683 11.995 4.99996 11.993V11.996ZM4.99996 2.796L2.87096 4.878C2.32534 5.44469 2.02415 6.20302 2.03225 6.98964C2.04035 7.77626 2.35711 8.52823 2.91428 9.08356C3.47145 9.6389 4.22445 9.95316 5.01109 9.95867C5.79773 9.96418 6.55507 9.66048 7.11996 9.113C7.67927 8.54858 7.99306 7.78611 7.99306 6.9915C7.99306 6.19689 7.67927 5.43443 7.11996 4.87L4.99996 2.796ZM20 9.996C19.4742 9.99679 18.9536 9.89325 18.4681 9.69139C17.9827 9.48952 17.5421 9.19334 17.172 8.82C16.4264 8.0674 16.0081 7.05087 16.0081 5.9915C16.0081 4.93213 16.4264 3.9156 17.172 3.163L19.982 0.039L22.86 3.2C23.5908 3.95557 23.9968 4.96732 23.9908 6.01853C23.9848 7.06973 23.5674 8.07679 22.828 8.824C22.4572 9.19608 22.0164 9.49096 21.531 9.69162C21.0456 9.89227 20.5252 9.99471 20 9.993V9.996ZM19.992 3.021L18.622 4.542C18.2418 4.91224 18.0242 5.41835 18.0172 5.94898C18.0102 6.47962 18.2142 6.99131 18.5845 7.3715C18.9547 7.75169 19.4608 7.96923 19.9914 7.97626C20.5221 7.98329 21.0338 7.77924 21.414 7.409C21.7868 7.03262 21.9959 6.52427 21.9959 5.9945C21.9959 5.46473 21.7868 4.95638 21.414 4.58L19.992 3.021Z" fill="white"/>
</g>
<defs>
<clipPath id="clip0_32_984">
<rect width="24" height="24" rx="4" fill="white"/>
</clipPath>
</defs>
</svg>
