<svg width="24" height="24" viewBox="0 0 24 24" fill="none" xmlns="http://www.w3.org/2000/svg">
<g clip-path="url(#clip0_32_940)">
<path d="M11.9852 12.0148C11.9852 12.0148 12.3814 17.77 9.07566 21.0755C5.7699 24.381 0.0149384 23.985 0.0149384 23.985C0.0149384 23.985 -0.381302 18.2298 2.92446 14.9243C6.23022 11.6188 11.9852 12.0148 11.9852 12.0148Z" fill="#172A21"/>
<path d="M23.9852 0.0147946C23.9852 0.0147946 24.3814 5.76999 21.0757 9.07551C17.7699 12.381 12.0149 11.985 12.0149 11.985C12.0149 11.985 11.6187 6.22983 14.9245 2.92431C18.2302 -0.381205 23.9852 0.0147946 23.9852 0.0147946Z" fill="#172A21"/>
<path d="M11.9854 11.9851C11.9854 11.9851 6.2302 12.3813 2.92468 9.07554C-0.380839 5.76978 0.0151608 0.0148163 0.0151608 0.0148163C0.0151608 0.0148163 5.77036 -0.381424 9.07588 2.92434C12.3814 6.2301 11.9854 11.9851 11.9854 11.9851Z" fill="#172A21"/>
<path d="M23.9852 23.9851C23.9852 23.9851 18.23 24.3813 14.9244 21.0755C11.6189 17.7698 12.0149 12.0148 12.0149 12.0148C12.0149 12.0148 17.7701 11.6186 21.0756 14.9243C24.3812 18.2301 23.9852 23.9851 23.9852 23.9851Z" fill="#172A21"/>
</g>
<defs>
<clipPath id="clip0_32_940">
<rect width="24" height="24" fill="white"/>
</clipPath>
</defs>
</svg>
