<svg width="40" height="40" viewBox="0 0 40 40" fill="none" xmlns="http://www.w3.org/2000/svg">
<g clip-path="url(#clip0_32_571)">
<path d="M19.9752 20.0249C19.9752 20.0249 20.6356 29.6169 15.126 35.1261C9.61642 40.6353 0.0248159 39.9753 0.0248159 39.9753C0.0248159 39.9753 -0.635584 30.3833 4.87402 24.8741C10.3836 19.3649 19.9752 20.0249 19.9752 20.0249Z" fill="#2F4840"/>
<path d="M39.9752 0.0249018C39.9752 0.0249018 40.6356 9.6169 35.126 15.1261C29.6164 20.6353 20.0248 19.9753 20.0248 19.9753C20.0248 19.9753 19.3644 10.3833 24.874 4.8741C30.3836 -0.635098 39.9752 0.0249018 39.9752 0.0249018Z" fill="#2F4840"/>
<path d="M19.9754 19.9753C19.9754 19.9753 10.3834 20.6357 4.87422 15.1261C-0.634976 9.61654 0.0250239 0.024938 0.0250239 0.024938C0.0250239 0.024938 9.61702 -0.635462 15.1262 4.87414C20.6354 10.3837 19.9754 19.9753 19.9754 19.9753Z" fill="#2F4840"/>
<path d="M39.9752 39.9751C39.9752 39.9751 30.3832 40.6355 24.874 35.1259C19.3648 29.6163 20.0248 20.0247 20.0248 20.0247C20.0248 20.0247 29.6168 19.3643 35.126 24.8739C40.6352 30.3835 39.9752 39.9751 39.9752 39.9751Z" fill="#2F4840"/>
</g>
<defs>
<clipPath id="clip0_32_571">
<rect width="40" height="40" fill="white"/>
</clipPath>
</defs>
</svg>
