<svg width="24" height="24" viewBox="0 0 24 24" fill="none" xmlns="http://www.w3.org/2000/svg">
<g clip-path="url(#clip0_32_1002)">
<path d="M11.0391 22.0008V24.0008H13.0391V22.0008H22.9071L18.24 15.0008H20.907L16.9071 9.0008H19.1001C19.1001 9.0008 15.239 2.84448 13.8461 0.86382C13.8161 0.821163 13.7511 0.73946 13.7161 0.700835C12.9036 -0.196962 11.1095 -0.261883 10.3611 0.700835L4.94606 9.0008H7.17004L3.17006 15.0008H5.83608L1.17004 22.0008H11.0391ZM6.90703 13.0008L10.907 7.00079H8.63001L11.837 2.06377C11.9509 1.96191 12.1231 1.96191 12.237 2.06377L15.426 7.00079H13.17L17.17 13.0008H14.5L19.167 20.0008H4.90706L9.57408 13.0008H6.90703Z" fill="white"/>
<path d="M10.0379 18C10.5902 18 11.0379 17.5523 11.0379 17C11.0379 16.4477 10.5902 16 10.0379 16C9.48567 16 9.03796 16.4477 9.03796 17C9.03796 17.5523 9.48567 18 10.0379 18Z" fill="white"/>
<path d="M14.0379 18.999C14.5902 18.999 15.0379 18.5513 15.0379 17.999C15.0379 17.4467 14.5902 16.999 14.0379 16.999C13.4857 16.999 13.038 17.4467 13.038 17.999C13.038 18.5513 13.4857 18.999 14.0379 18.999Z" fill="white"/>
<path d="M12.038 15C12.5903 15 13.038 14.5523 13.038 14C13.038 13.4477 12.5903 13 12.038 13C11.4857 13 11.038 13.4477 11.038 14C11.038 14.5523 11.4857 15 12.038 15Z" fill="white"/>
<path d="M11.0379 11C11.5902 11 12.0379 10.5523 12.0379 9.99998C12.0379 9.44771 11.5902 9 11.0379 9C10.4857 9 10.038 9.44771 10.038 9.99998C10.038 10.5523 10.4857 11 11.0379 11Z" fill="white"/>
</g>
<defs>
<clipPath id="clip0_32_1002">
<rect width="24" height="24" rx="4" fill="white"/>
</clipPath>
</defs>
</svg>
