<svg width="24" height="24" viewBox="0 0 24 24" fill="none" xmlns="http://www.w3.org/2000/svg">
<g clip-path="url(#clip0_62_1113)">
<path d="M6.59998 22.1218L4.67698 21.5218L5.49998 18.9658C5.66928 18.986 5.83951 18.9973 6.00998 18.9998C7.09115 18.9972 8.14232 18.6441 9.00591 17.9936C9.86951 17.3431 10.499 16.4303 10.8 15.3918L12 11.8358L13.183 15.3358C13.4795 16.4807 14.1812 17.4791 15.1578 18.1461C16.1344 18.813 17.3197 19.1032 18.494 18.9628L19.294 21.5188L17.364 22.1188L17.958 24.0288L23.737 22.2288L23.144 20.3188L21.205 20.9188L20.405 18.3588C21.4038 17.8178 22.1869 16.9507 22.6237 15.9021C23.0604 14.8535 23.1244 13.6869 22.805 12.5968L20.957 7.13183C20.725 6.38438 20.2122 5.75602 19.5265 5.37891C18.8407 5.00181 18.0354 4.90535 17.28 5.10983L13.428 6.18383C12.8756 6.33753 12.3796 6.64806 12 7.07783C11.6204 6.64806 11.1244 6.33753 10.572 6.18383L6.71898 5.10983C5.96905 4.90296 5.16814 4.99469 4.4844 5.36574C3.80065 5.73679 3.28725 6.35832 3.05198 7.09983L1.18498 12.6568C0.879267 13.7393 0.950239 14.8935 1.38627 15.9303C1.8223 16.9672 2.59754 17.8252 3.58498 18.3638L2.76798 20.9318L0.82098 20.3318L0.22998 22.2368L6.01098 24.0368L6.59998 22.1218ZM20.607 15.4728C20.4134 15.816 20.1542 16.1176 19.844 16.3606C19.5339 16.6035 19.1789 16.783 18.7994 16.8888C18.4199 16.9946 18.0232 17.0245 17.6321 16.977C17.241 16.9295 16.8631 16.8054 16.52 16.6118C16.1696 16.413 15.8625 16.1461 15.6167 15.8269C15.371 15.5076 15.1915 15.1424 15.089 14.7528L14.164 11.9998H20.487L20.887 13.1938C20.994 13.5731 21.0247 13.9698 20.9773 14.361C20.9299 14.7522 20.8054 15.1301 20.611 15.4728H20.607ZM13.357 8.59183C13.4206 8.47465 13.5073 8.37155 13.6117 8.28871C13.7162 8.20588 13.8364 8.14503 13.965 8.10983L17.816 7.03683C17.9019 7.01277 17.9907 7.00032 18.08 6.99983C18.2999 7.00215 18.5132 7.07529 18.6883 7.20841C18.8634 7.34152 18.9909 7.52752 19.052 7.73883L19.813 9.99983H13.49L13.275 9.36283C13.2366 9.23533 13.2241 9.10145 13.2382 8.96906C13.2523 8.83666 13.2927 8.70841 13.357 8.59183ZM5.91798 6.99983C6.00752 6.99999 6.09664 7.0121 6.18298 7.03583L10.035 8.10983C10.2895 8.18001 10.5059 8.34798 10.637 8.57708C10.7681 8.80619 10.8033 9.07785 10.735 9.33283L10.51 9.99983H4.18698L4.95698 7.70983C5.02053 7.50448 5.14806 7.32482 5.32094 7.19709C5.49383 7.06936 5.70303 7.00024 5.91798 6.99983ZM3.09998 13.2448L3.51398 11.9998H9.83598L8.89198 14.7998C8.73225 15.3706 8.40701 15.8813 7.95731 16.2675C7.50761 16.6536 6.9536 16.8979 6.3652 16.9694C5.7768 17.041 5.18039 16.9367 4.65123 16.6696C4.12207 16.4025 3.68389 15.9847 3.39198 15.4688C3.0055 14.7949 2.90057 13.9957 3.09998 13.2448Z" fill="white"/>
<path d="M16.2931 0.292918L14.0049 2.58112L15.4191 3.99533L17.7073 1.70713L16.2931 0.292918Z" fill="white"/>
<path d="M7.7067 0.293244L6.29248 1.70746L8.5425 3.95747L9.95672 2.54326L7.7067 0.293244Z" fill="white"/>
<path d="M13.0001 0H11.0001V3H13.0001V0Z" fill="white"/>
</g>
<defs>
<clipPath id="clip0_62_1113">
<rect width="24" height="24" rx="4" fill="white"/>
</clipPath>
</defs>
</svg>
