<svg width="24" height="24" viewBox="0 0 24 24" fill="none" xmlns="http://www.w3.org/2000/svg">
<g clip-path="url(#clip0_62_1099)">
<path d="M21 5.99994H11C10.3111 6.00005 9.64314 6.23729 9.10848 6.67179C8.57382 7.10629 8.205 7.71157 8.064 8.38594C7.58042 8.13569 7.04448 8.00342 6.5 7.99994C5.57174 7.99994 4.6815 8.36869 4.02513 9.02507C3.36875 9.68144 3 10.5717 3 11.4999C3.00293 12.0199 3.12289 12.5326 3.351 12.9999H2V1.99994H0V21.9999H2V18.9999H22V21.9999H24V8.99994C24 8.20429 23.6839 7.44123 23.1213 6.87862C22.5587 6.31601 21.7956 5.99994 21 5.99994ZM10 8.99994C10 8.73472 10.1054 8.48037 10.2929 8.29283C10.4804 8.1053 10.7348 7.99994 11 7.99994H21C21.2652 7.99994 21.5196 8.1053 21.7071 8.29283C21.8946 8.48037 22 8.73472 22 8.99994V12.9999H10V8.99994ZM5 11.4999C5 11.2033 5.08797 10.9133 5.2528 10.6666C5.41762 10.4199 5.65189 10.2277 5.92597 10.1141C6.20006 10.0006 6.50166 9.97088 6.79264 10.0288C7.08361 10.0866 7.35088 10.2295 7.56066 10.4393C7.77044 10.6491 7.9133 10.9163 7.97118 11.2073C8.02906 11.4983 7.99935 11.7999 7.88582 12.074C7.77229 12.3481 7.58003 12.5823 7.33336 12.7471C7.08668 12.912 6.79667 12.9999 6.5 12.9999C6.10218 12.9999 5.72064 12.8419 5.43934 12.5606C5.15804 12.2793 5 11.8978 5 11.4999ZM2 16.9999V14.9999H22V16.9999H2Z" fill="white"/>
</g>
<defs>
<clipPath id="clip0_62_1099">
<rect width="24" height="24" rx="4" fill="white"/>
</clipPath>
</defs>
</svg>
